<svg width="62" height="62" viewBox="0 0 62 62" fill="none" xmlns="http://www.w3.org/2000/svg">
<g clip-path="url(#clip0)">
<path d="M31 0C24.8688 0 18.8753 1.81812 13.7773 5.22444C8.67941 8.63077 4.70606 13.4723 2.35975 19.1368C0.0134317 24.8013 -0.600472 31.0344 0.59567 37.0478C1.79181 43.0612 4.74428 48.5849 9.0797 52.9203C13.4151 57.2557 18.9388 60.2082 24.9522 61.4043C30.9656 62.6005 37.1987 61.9866 42.8632 59.6403C48.5277 57.2939 53.3693 53.3206 56.7756 48.2227C60.1819 43.1248 62 37.1312 62 31C61.9907 22.7812 58.7216 14.9016 52.91 9.09003C47.0984 3.27843 39.2189 0.00935861 31 0V0ZM52.297 51.0967L48.36 47.1597C52.2568 42.9894 54.5133 37.5502 54.7131 31.8462H60.2834C60.0809 39.0272 57.2374 45.8813 52.297 51.0967ZM7.2855 30.2061C7.19267 30.1706 7.09426 30.1519 6.99487 30.1509H1.96755C1.8819 30.1521 1.79695 30.1665 1.71567 30.1935C1.90759 22.9969 4.75223 16.1251 9.70301 10.8984L13.64 14.8354C9.72991 19.0201 7.47188 24.482 7.2855 30.2061ZM47.1612 13.6405C42.9913 9.74289 37.552 7.48577 31.8477 7.28597V1.71517C39.0286 1.91785 45.8827 4.76136 51.0982 9.70155L47.1612 13.6405ZM30.1524 7.28597C24.4483 7.48524 19.009 9.74166 14.8388 13.6385L10.9018 9.70155C16.1173 4.7612 22.9714 1.91767 30.1524 1.71517V7.28597ZM31 8.96094C35.3589 8.96094 39.62 10.2535 43.2443 12.6752C46.8686 15.0969 49.6934 18.5389 51.3615 22.566C53.0295 26.5931 53.466 31.0244 52.6156 35.2996C51.7652 39.5748 49.6662 43.5018 46.584 46.584C43.5018 49.6662 39.5748 51.7652 35.2996 52.6156C31.0245 53.466 26.5931 53.0295 22.566 51.3614C18.5389 49.6934 15.0969 46.8685 12.6752 43.2442C10.2535 39.6199 8.96095 35.3589 8.96095 31C8.96749 25.1569 11.2916 19.555 15.4233 15.4233C19.555 11.2915 25.1569 8.96748 31 8.96094ZM14.7211 48.4762C14.7605 48.4367 14.7958 48.3934 14.8267 48.3469C18.9984 52.2505 24.4426 54.5115 30.1524 54.7116V60.2819C22.968 60.0797 16.1109 57.2339 10.8946 52.2897C10.922 52.2699 10.9483 52.2484 10.973 52.2253L14.7211 48.4762ZM31.8477 54.7116C37.5518 54.5122 42.9911 52.2556 47.1612 48.3585L51.0982 52.2955C45.8827 57.2357 39.0286 60.0792 31.8477 60.2819V54.7116ZM60.2834 30.1509H54.7131C54.5133 24.4469 52.2568 19.0076 48.36 14.8374L52.297 10.9004C57.2372 16.1159 60.0807 22.9699 60.2834 30.1509ZM1.71567 31.8036C1.79695 31.8306 1.8819 31.845 1.96755 31.8462H6.99294C7.09232 31.8452 7.19073 31.8265 7.28356 31.791C7.47094 37.5205 9.73409 42.9867 13.6516 47.1718C13.6052 47.2027 13.5619 47.2381 13.5223 47.2774L9.7747 51.0255C9.7515 51.0504 9.72997 51.0767 9.71028 51.1045C4.75556 45.8774 1.90818 39.0032 1.71567 31.8036Z" fill="white"/>
<path d="M18.8235 26.1044C18.6685 26.1868 18.5429 26.3153 18.4641 26.4722C18.3853 26.6291 18.3572 26.8066 18.3837 26.9802L20.8056 42.904C20.8361 43.1044 20.9375 43.2872 21.0912 43.4193C21.2449 43.5514 21.4409 43.6241 21.6436 43.6243H40.354C40.5567 43.6243 40.7528 43.5517 40.9066 43.4195C41.0603 43.2874 41.1616 43.1045 41.192 42.904L43.6138 26.9802C43.6402 26.8066 43.6121 26.6291 43.5333 26.4722C43.4545 26.3154 43.329 26.1868 43.174 26.1044C43.019 26.0219 42.8422 25.9896 42.6681 26.0119C42.494 26.0342 42.3311 26.11 42.2019 26.2289L35.1101 32.7583L31.7476 26.4536C31.6753 26.3181 31.5675 26.2048 31.4358 26.1258C31.3041 26.0467 31.1534 26.005 30.9997 26.005C30.8461 26.005 30.6954 26.0467 30.5637 26.1258C30.4319 26.2048 30.3242 26.3181 30.2519 26.4536L26.8893 32.7583L19.7957 26.2289C19.6666 26.1097 19.5037 26.0337 19.3295 26.0114C19.1553 25.9891 18.9784 26.0216 18.8235 26.1044ZM26.5478 34.7476C26.6431 34.8353 26.7571 34.9001 26.8813 34.9369C27.0054 34.9737 27.1363 34.9815 27.264 34.9598C27.3916 34.9381 27.5126 34.8874 27.6176 34.8117C27.7226 34.7359 27.8088 34.6371 27.8697 34.5228L30.9997 28.6537L34.1298 34.5228C34.1906 34.6371 34.2769 34.7359 34.3819 34.8117C34.4869 34.8874 34.6079 34.9381 34.7355 34.9598C34.8632 34.9815 34.9941 34.9737 35.1182 34.9369C35.2424 34.9001 35.3564 34.8353 35.4516 34.7476L41.577 29.1109L39.626 41.9289H22.3735L20.4224 29.1109L26.5478 34.7476Z" fill="white"/>
<path d="M31.0002 24.9758C31.6529 24.9758 32.291 24.7823 32.8337 24.4197C33.3763 24.0571 33.7993 23.5417 34.0491 22.9387C34.2989 22.3357 34.3642 21.6721 34.2369 21.032C34.1095 20.3918 33.7953 19.8038 33.3337 19.3423C32.8722 18.8808 32.2842 18.5665 31.644 18.4391C31.0039 18.3118 30.3404 18.3772 29.7374 18.6269C29.1344 18.8767 28.619 19.2997 28.2564 19.8424C27.8937 20.3851 27.7002 21.0231 27.7002 21.6758C27.7012 22.5507 28.0492 23.3895 28.6679 24.0081C29.2865 24.6268 30.1253 24.9748 31.0002 24.9758ZM31.0002 20.0715C31.3177 20.0715 31.6279 20.1657 31.8918 20.342C32.1557 20.5184 32.3614 20.769 32.4829 21.0623C32.6043 21.3555 32.6361 21.6782 32.5741 21.9895C32.5121 22.3008 32.3593 22.5867 32.1348 22.8112C31.9103 23.0356 31.6243 23.1884 31.313 23.2502C31.0017 23.3121 30.679 23.2802 30.3858 23.1587C30.0926 23.0372 29.842 22.8314 29.6657 22.5675C29.4894 22.3035 29.3954 21.9932 29.3955 21.6758C29.3959 21.2503 29.5651 20.8424 29.866 20.5417C30.1669 20.2409 30.5748 20.0718 31.0002 20.0715Z" fill="white"/>
<path d="M42.7781 24.9758C43.4307 24.9755 44.0686 24.7818 44.6111 24.419C45.1536 24.0562 45.5763 23.5407 45.8259 22.9376C46.0754 22.3346 46.1406 21.6711 46.0131 21.0311C45.8856 20.391 45.5712 19.8032 45.1096 19.3418C44.648 18.8804 44.06 18.5663 43.4199 18.439C42.7798 18.3118 42.1163 18.3773 41.5134 18.6271C40.9105 18.8769 40.3952 19.2999 40.0326 19.8425C39.6701 20.3852 39.4766 21.0232 39.4766 21.6758C39.4776 22.5509 39.8258 23.3899 40.4448 24.0086C41.0637 24.6273 41.9029 24.9752 42.7781 24.9758ZM42.7781 20.0715C43.0954 20.0718 43.4055 20.1662 43.6693 20.3427C43.933 20.5192 44.1384 20.77 44.2597 21.0633C44.3809 21.3566 44.4124 21.6792 44.3503 21.9904C44.2882 22.3016 44.1352 22.5874 43.9106 22.8117C43.6861 23.0359 43.4001 23.1886 43.0888 23.2503C42.7776 23.3121 42.455 23.2801 42.1618 23.1586C41.8687 23.037 41.6182 22.8312 41.442 22.5673C41.2658 22.3034 41.1718 21.9931 41.1719 21.6758C41.1724 21.2501 41.3418 20.8421 41.643 20.5413C41.9442 20.2405 42.3524 20.0715 42.7781 20.0715Z" fill="white"/>
<path d="M19.2219 24.9758C19.8746 24.9758 20.5126 24.7823 21.0553 24.4197C21.598 24.0571 22.021 23.5417 22.2708 22.9387C22.5205 22.3357 22.5859 21.6721 22.4586 21.032C22.3312 20.3918 22.0169 19.8038 21.5554 19.3423C21.0939 18.8808 20.5059 18.5665 19.8657 18.4391C19.2256 18.3118 18.5621 18.3772 17.959 18.6269C17.356 18.8767 16.8406 19.2997 16.478 19.8424C16.1154 20.3851 15.9219 21.0231 15.9219 21.6758C15.9229 22.5507 16.2709 23.3895 16.8896 24.0081C17.5082 24.6268 18.347 24.9748 19.2219 24.9758ZM19.2219 20.0715C19.5393 20.0715 19.8496 20.1657 20.1135 20.342C20.3774 20.5184 20.5831 20.769 20.7045 21.0623C20.826 21.3555 20.8577 21.6782 20.7958 21.9895C20.7338 22.3008 20.5809 22.5867 20.3565 22.8112C20.132 23.0356 19.846 23.1884 19.5347 23.2502C19.2234 23.3121 18.9007 23.2802 18.6075 23.1587C18.3143 23.0372 18.0637 22.8314 17.8874 22.5675C17.7111 22.3035 17.6171 21.9932 17.6172 21.6758C17.6176 21.2503 17.7868 20.8424 18.0877 20.5417C18.3885 20.2409 18.7965 20.0718 19.2219 20.0715Z" fill="white"/>
</g>
<defs>
<clipPath id="clip0">
<rect width="62" height="62" fill="white"/>
</clipPath>
</defs>
</svg>
