<svg width="60" height="60" viewBox="0 0 60 60" fill="none" xmlns="http://www.w3.org/2000/svg">
<g clip-path="url(#clip0)">
<path d="M22.812 7.19845C23.4335 7.19845 23.8779 6.62904 23.7332 6.03619C23.6106 5.5331 23.098 5.22572 22.5957 5.34877C21.5202 5.6047 21.7061 7.19845 22.812 7.19845Z" fill="white"/>
<path d="M40.701 9.56562C40.701 6.34157 34.7468 4.65479 28.8652 4.65479C27.8151 4.65479 26.7741 4.70764 25.7713 4.81193C25.2563 4.86549 24.8822 5.32638 24.9358 5.8413C24.9893 6.35622 25.4496 6.73169 25.9651 6.67684C29.1486 6.34579 33.2392 6.53903 36.2504 7.63684C38.1516 8.32988 38.826 9.10906 38.826 9.56562C38.826 10.0222 38.1515 10.8014 36.2504 11.4944C32.2043 12.9695 25.5389 12.9742 21.4801 11.4944C19.5788 10.8014 18.9044 10.0222 18.9044 9.56562C18.9044 9.25366 19.1953 8.87726 19.7235 8.5059C20.1472 8.20812 20.2491 7.62336 19.9513 7.19973C19.6535 6.7761 19.0686 6.67427 18.6452 6.97192C17.3097 7.91082 17.0293 8.90058 17.0293 9.56562C17.0293 16.0852 40.701 16.1091 40.701 9.56562Z" fill="white"/>
<path d="M50.9721 29.7388C50.661 29.3247 50.073 29.2415 49.6595 29.5522C49.2455 29.8631 49.162 30.4509 49.4729 30.8648C50.0914 31.6883 50.4051 32.5432 50.4051 33.4058C50.4051 36.4519 46.5256 39.1523 41.0811 40.3859C43.9292 38.9445 46.6038 36.5956 46.6038 33.4058C46.6038 27.1664 46.6427 27.3504 46.4872 26.6059C46.3813 26.0992 45.8847 25.7744 45.3777 25.88C44.871 25.986 44.5459 26.4827 44.6519 26.9896C45.6065 31.5513 37.7867 35.42 28.8647 35.42C24.2287 35.42 19.8957 34.388 16.9303 32.7358C28.357 36.062 43.1982 31.8978 43.1982 24.3238V20.9376C45.4106 19.3164 46.604 17.3445 46.604 15.2418V9.56563C46.604 0.871659 27.4813 -2.97945 16.556 2.63075C13.0541 4.4291 11.1255 6.89178 11.1255 9.56563V12.9536C8.89534 14.5888 7.71973 16.5494 7.71973 18.6476V24.3239C7.71973 26.4265 8.91304 28.3985 11.1255 30.0197C11.1255 33.4611 10.9237 34.5537 11.9229 36.3051C11.3941 37.232 11.1255 38.2017 11.1255 39.1957V50.4346C11.1255 59.1286 30.2482 62.9797 41.1735 57.3695C44.6753 55.5712 46.6038 53.1085 46.6038 50.4346V46.1374C49.5283 44.6921 52.2801 42.3198 52.2801 39.0822V33.4059C52.2801 32.128 51.84 30.8942 50.9721 29.7388ZM44.7288 32.0766V33.4058C44.7288 37.5743 37.464 41.0961 28.8647 41.0961C22.006 41.0961 15.9963 38.8557 13.8444 35.8336C13.8191 35.7897 13.7905 35.7474 13.7578 35.7074C12.8791 34.3994 13.0005 33.5541 13.0005 32.0771C19.3942 38.9862 38.2634 39.0345 44.7288 32.0766ZM44.7288 15.2418C44.7288 17.9957 41.4679 19.8535 41.7355 19.6735C38.8266 21.6306 34.0924 22.9322 28.8647 22.9322C20.2654 22.9322 13.0005 19.4104 13.0005 15.2418V13.9127C19.4765 20.8818 38.2886 20.8433 44.7288 13.9127V15.2418ZM28.8647 1.87525C37.464 1.87525 44.7288 5.39706 44.7288 9.56563C44.7288 13.7342 37.464 17.256 28.8647 17.256C20.2654 17.256 13.0005 13.7342 13.0005 9.56563C13.0005 5.39706 20.2654 1.87525 28.8647 1.87525ZM11.1294 15.4102C11.3577 22.9201 26.1243 26.9339 37.3937 23.6538C34.4282 25.306 30.0951 26.338 25.459 26.338C14.4543 26.338 5.9747 20.6149 11.1294 15.4102ZM9.59483 24.3238V22.9947C16.1789 30.08 35.0282 29.7969 41.3232 22.9952V24.3238C41.3232 28.4924 34.0583 32.0142 25.459 32.0142C16.8597 32.0142 9.59483 28.4924 9.59483 24.3238ZM17.0056 40.5607C17.6244 42.7849 19.6379 44.7946 22.7386 46.2663C17.0777 45.0782 13.0005 42.3184 13.0005 39.1956C13.0005 38.7863 13.0725 38.3782 13.2131 37.9744C14.0816 38.8497 15.2891 39.738 17.0056 40.5607ZM28.8647 58.1249C20.2654 58.1249 13.0005 54.6031 13.0005 50.4345V49.219C17.053 53.5799 25.4777 54.8035 31.4792 54.3363C31.9954 54.2961 32.3813 53.8451 32.341 53.3288C32.3009 52.8126 31.8502 52.4271 31.3336 52.467C21.8393 53.206 13.0005 49.5014 13.0005 44.8718C13.0005 44.7125 13.0005 43.8173 13.0005 43.5427C17.1374 47.9946 25.8939 49.2651 32.3817 48.5761C36.2587 48.8257 40.3482 48.4152 43.9322 47.226C42.9778 48.6115 41.2007 49.8712 38.7908 50.8286C38.3097 51.0198 38.0745 51.5648 38.2658 52.0461C38.4579 52.5297 39.0043 52.7614 39.4832 52.5711C41.7208 51.6821 43.5055 50.5224 44.729 49.2002V50.4344C44.7288 54.6031 37.464 58.1249 28.8647 58.1249ZM50.4051 39.0821C50.4051 45.5162 33.9797 49.4761 23.6023 44.6012C21.7718 43.7414 20.4 42.7057 19.575 41.5829C23.3237 42.8081 27.6341 43.1936 31.696 42.8508C37.7783 43.3675 46.3166 42.1528 50.4051 37.753V39.0821Z" fill="white"/>
<path d="M35.549 51.8284C35.0422 51.9386 34.7223 52.446 34.8428 52.9578C34.962 53.464 35.4723 53.7709 35.9706 53.6554C36.4752 53.539 36.7897 53.0356 36.6733 52.5311C36.5569 52.0266 36.0535 51.7122 35.549 51.8284Z" fill="white"/>
</g>
<defs>
<clipPath id="clip0">
<rect width="60" height="60" fill="white"/>
</clipPath>
</defs>
</svg>
