<svg width="60" height="60" viewBox="0 0 60 60" fill="none" xmlns="http://www.w3.org/2000/svg">
<path d="M57.2729 30.2516V21.8188C57.2729 18.9593 55.0549 16.6337 52.2525 16.4082L44.4211 2.72948C43.6954 1.46439 42.5235 0.560181 41.1212 0.184719C39.7256 -0.188187 38.2662 0.00766203 37.0171 0.734681L10.1706 16.3643H5.45548C2.4473 16.3643 0.000976562 18.8105 0.000976562 21.8188V54.5455C0.000976562 57.5537 2.44717 60 5.45548 60H51.8184C54.8266 60 57.2729 57.5538 57.2729 54.5455V46.1126C58.8567 45.5478 60.0001 44.0484 60.0001 42.273V34.0913C60.0001 32.3159 58.8567 30.8164 57.2729 30.2516ZM49.0835 16.3643H37.1982L46.1123 11.1745L49.0835 16.3643ZM44.7573 8.80783L31.778 16.3643H26.3943L43.4112 6.45675L44.7573 8.80783ZM38.39 3.09165C39.0065 2.73076 39.7269 2.63488 40.4154 2.81871C41.1119 3.0051 41.6925 3.45522 42.0534 4.08508L42.0562 4.09007L20.9743 16.3643H15.5909L38.39 3.09165ZM54.5456 54.5455C54.5456 56.0489 53.3218 57.2727 51.8184 57.2727H5.45548C3.95209 57.2727 2.72829 56.0489 2.72829 54.5455V21.8188C2.72829 20.3154 3.95209 19.0916 5.45548 19.0916H51.8184C53.3218 19.0916 54.5456 20.3154 54.5456 21.8188V30.0004H46.3639C41.8522 30.0004 38.1822 33.6704 38.1822 38.1821C38.1822 42.6938 41.8522 46.3638 46.3639 46.3638H54.5456V54.5455ZM57.2729 42.273C57.2729 43.0253 56.6617 43.6366 55.9092 43.6366H46.3639C43.3557 43.6366 40.9094 41.1904 40.9094 38.1821C40.9094 35.174 43.3556 32.7276 46.3639 32.7276H55.9092C56.6616 32.7276 57.2729 33.3388 57.2729 34.0913V42.273Z" fill="white"/>
</svg>
