<svg width="55" height="55" viewBox="0 0 55 55" fill="none" xmlns="http://www.w3.org/2000/svg">
<path fill-rule="evenodd" clip-rule="evenodd" d="M37.1617 28.0319C37.5864 28.0319 38.0111 27.6072 38.0111 27.1825V21.4489C38.0111 21.0242 37.7988 20.8118 37.3741 20.5995L27.8181 16.9895C27.6057 16.9895 27.3934 16.9895 27.181 16.9895L17.6251 20.5995C17.4127 20.8118 17.2003 21.0242 17.2003 21.4489V23.9972C17.2003 24.4219 17.6251 24.8466 18.0498 24.8466C18.4745 24.8466 18.6869 24.4219 18.6869 23.9972V22.5107L26.7563 25.4837V36.1014L18.6869 33.1284V27.8196C18.6869 27.1825 18.4745 26.9702 18.0498 26.9702C17.6251 26.9702 17.2003 27.1825 17.2003 27.8196V33.7655C17.2003 34.1902 17.4127 34.4026 17.6251 34.4026L27.181 38.0126C27.3934 38.225 27.3934 38.225 27.6057 38.225C27.6057 38.225 27.8181 38.225 27.8181 38.0126L37.3741 34.4026C37.7988 34.4026 38.0111 34.1902 38.0111 33.7655V31.0049C38.0111 30.5802 37.5864 30.1555 37.1617 30.1555C36.737 30.1555 36.3123 30.5802 36.3123 31.0049V33.1284L28.4552 36.1014V25.4837L36.3123 22.5107V27.1825C36.3123 27.6072 36.737 28.0319 37.1617 28.0319ZM27.6057 23.9972L20.3857 21.4489L27.6057 18.6883L34.8258 21.4489L27.6057 23.9972Z" fill="#5CC6D0"/>
<path fill-rule="evenodd" clip-rule="evenodd" d="M26.7564 8.06949V13.8031C26.7564 14.2278 27.1811 14.6525 27.6058 14.6525C28.0305 14.6525 28.4552 14.2278 28.4552 13.8031V8.06949C30.1541 7.64478 31.6406 5.94593 31.6406 4.03475C31.6406 1.9112 29.7294 0 27.6058 0C25.2699 0 23.5711 1.9112 23.5711 4.03475C23.5711 5.94593 24.8452 7.64478 26.7564 8.06949ZM27.6058 1.69884C28.8799 1.69884 29.9418 2.76062 29.9418 4.03475C29.9418 5.52123 28.8799 6.58303 27.6058 6.58303C26.1193 6.58303 25.0576 5.52123 25.0576 4.03475C25.0576 2.76062 26.1193 1.69884 27.6058 1.69884Z" fill="#5CC6D0"/>
<path fill-rule="evenodd" clip-rule="evenodd" d="M43.1084 37.5873C41.8344 37.5873 40.7727 37.7997 39.7109 38.6491L37.7997 36.7379C37.5873 36.3132 36.9503 36.3132 36.7379 36.7379C36.3132 36.9502 36.3132 37.5873 36.7379 37.7997L38.6491 39.7108C37.7997 40.7727 37.5873 41.8344 37.5873 43.1084C37.5873 46.0814 39.9233 48.6299 43.1084 48.6299C46.0814 48.6299 48.6299 46.0814 48.6299 43.1084C48.6299 39.9232 46.0814 37.5873 43.1084 37.5873ZM43.1084 47.1432C40.985 47.1432 39.0738 45.2319 39.0738 43.1084C39.0738 40.985 40.985 39.0738 43.1084 39.0738C45.2319 39.0738 47.1432 40.985 47.1432 43.1084C47.1432 45.2319 45.2319 47.1432 43.1084 47.1432Z" fill="#5CC6D0"/>
<path fill-rule="evenodd" clip-rule="evenodd" d="M12.1043 17.6255C13.3785 17.6255 14.4402 17.2008 15.2897 16.5637L17.2008 18.4749C17.4132 18.6873 17.6256 18.6873 17.8379 18.6873C18.0503 18.6873 18.2626 18.6873 18.475 18.4749C18.6873 18.0502 18.6873 17.6255 18.475 17.2008L16.5638 15.2895C17.2008 14.4401 17.6256 13.3783 17.6256 12.1042C17.6256 8.91891 15.0773 6.37065 12.1043 6.37065C8.91899 6.37065 6.37073 8.91891 6.37073 12.1042C6.37073 15.0772 8.91899 17.6255 12.1043 17.6255ZM12.1043 8.06946C14.2279 8.06946 15.9267 9.76832 15.9267 12.1042C15.9267 14.2278 14.2279 15.9266 12.1043 15.9266C9.76844 15.9266 8.06958 14.2278 8.06958 12.1042C8.06958 9.76832 9.76844 8.06946 12.1043 8.06946Z" fill="#5CC6D0"/>
<path fill-rule="evenodd" clip-rule="evenodd" d="M28.4552 47.1423V41.1964C28.4552 40.7717 28.0305 40.347 27.6058 40.347C27.1811 40.347 26.7564 40.7717 26.7564 41.1964V47.1423C24.8452 47.3546 23.5711 49.0535 23.5711 50.9648C23.5711 53.3006 25.2699 54.9996 27.6058 54.9996C29.7294 54.9996 31.6406 53.3006 31.6406 50.9648C31.6406 49.0535 30.1541 47.3546 28.4552 47.1423ZM27.6058 53.5128C26.1193 53.5128 25.0576 52.4511 25.0576 50.9648C25.0576 49.6908 26.1193 48.629 27.6058 48.629C28.8799 48.629 29.9418 49.6908 29.9418 50.9648C29.9418 52.4511 28.8799 53.5128 27.6058 53.5128Z" fill="#5CC6D0"/>
<path fill-rule="evenodd" clip-rule="evenodd" d="M50.9648 23.5711C49.0535 23.5711 47.3546 24.8452 47.1423 26.7564H41.1964C40.7717 26.7564 40.347 27.1811 40.347 27.6058C40.347 28.0305 40.7717 28.4552 41.1964 28.4552H47.1423C47.3546 30.1541 49.0535 31.6406 50.9648 31.6406C53.3006 31.6406 54.9996 29.7294 54.9996 27.6058C54.9996 25.2699 53.3006 23.5711 50.9648 23.5711ZM50.9648 29.9418C49.6908 29.9418 48.629 28.88 48.629 27.6058C48.629 26.1193 49.6908 25.0576 50.9648 25.0576C52.4511 25.0576 53.5128 26.1193 53.5128 27.6058C53.5128 28.88 52.4511 29.9418 50.9648 29.9418Z" fill="#5CC6D0"/>
<path fill-rule="evenodd" clip-rule="evenodd" d="M8.06949 28.4552H13.8031C14.2278 28.4552 14.6525 28.0305 14.6525 27.6058C14.6525 27.1811 14.2278 26.7564 13.8031 26.7564H8.06949C7.64478 24.8452 5.94593 23.5711 4.03475 23.5711C1.9112 23.5711 0 25.2699 0 27.6058C0 29.7294 1.9112 31.6406 4.03475 31.6406C5.94593 31.6406 7.64478 30.1541 8.06949 28.4552ZM4.03475 29.9418C2.76062 29.9418 1.69884 28.88 1.69884 27.6058C1.69884 26.1193 2.76062 25.0576 4.03475 25.0576C5.52123 25.0576 6.58303 26.1193 6.58303 27.6058C6.58303 28.88 5.52123 29.9418 4.03475 29.9418Z" fill="#5CC6D0"/>
<path fill-rule="evenodd" clip-rule="evenodd" d="M37.1626 18.6873C37.375 18.6873 37.5873 18.6873 37.7997 18.4749L39.7109 16.5637C40.7727 17.2008 41.8344 17.6255 43.1084 17.6255C46.0814 17.6255 48.6299 15.0772 48.6299 12.1042C48.6299 8.91891 46.0814 6.37065 43.1084 6.37065C39.9233 6.37065 37.5873 8.91891 37.5873 12.1042C37.5873 13.3783 37.7997 14.4401 38.6491 15.2895L36.7379 17.2008C36.3132 17.6255 36.3132 18.0502 36.7379 18.4749C36.7379 18.6873 36.9503 18.6873 37.1626 18.6873ZM43.1084 8.06946C45.2319 8.06946 47.1432 9.76832 47.1432 12.1042C47.1432 14.2278 45.2319 15.9266 43.1084 15.9266C40.985 15.9266 39.0738 14.2278 39.0738 12.1042C39.0738 9.76832 40.985 8.06946 43.1084 8.06946Z" fill="#5CC6D0"/>
<path fill-rule="evenodd" clip-rule="evenodd" d="M17.2008 36.7379L15.2897 38.6491C14.4402 37.7997 13.3785 37.5873 12.1043 37.5873C8.91899 37.5873 6.37073 39.9232 6.37073 43.1084C6.37073 46.0814 8.91899 48.6299 12.1043 48.6299C15.0773 48.6299 17.6256 46.0814 17.6256 43.1084C17.6256 41.8344 17.2008 40.7727 16.5638 39.7108L18.475 37.7997C18.6873 37.5873 18.6873 36.9502 18.475 36.7379C18.0503 36.3132 17.6256 36.3132 17.2008 36.7379ZM12.1043 47.1432C9.76844 47.1432 8.06958 45.2319 8.06958 43.1084C8.06958 40.985 9.76844 39.0738 12.1043 39.0738C14.2279 39.0738 15.9267 40.985 15.9267 43.1084C15.9267 45.2319 14.2279 47.1432 12.1043 47.1432Z" fill="#5CC6D0"/>
</svg>
