<svg width="58" height="55" viewBox="0 0 58 55" fill="none" xmlns="http://www.w3.org/2000/svg">
<g clip-path="url(#clip0)">
<path d="M40.9412 0.0214539H17.0588C7.64928 0.0214539 0.0213318 7.70694 0.0213318 17.1875V37.8125C0.0213318 47.293 7.64928 54.9785 17.0588 54.9785H40.9412C50.3507 54.9785 57.9787 47.293 57.9787 37.8125V17.1875C57.9787 7.70694 50.3507 0.0214539 40.9412 0.0214539Z" stroke="#E20070" stroke-width="0.1"/>
<path d="M31.8259 10.4852L1.54529 16.0581L1.25781 14.6877L31.5385 9.11479L31.8259 10.4852ZM40.7377 10.1197L40.3544 11.4901L40.0669 11.3987L39.6836 11.3074L39.3961 11.216L39.1086 11.1247H38.7253L38.4378 11.0333L38.1504 10.942H37.7671L37.4796 10.8506H37.1921L36.8088 10.7592H36.5214L36.2339 10.6679H35.9464L35.5631 10.5765H35.2756L34.9882 10.4852H34.7007H34.4132H34.2215L33.9341 10.3938H33.6466H33.455H33.1675H32.9758H32.7842H32.5925H32.4009H32.2092H32.1134L31.9217 10.4852H31.8259L31.5385 9.11479H31.7301L31.9217 9.02344H32.1134H32.3051H32.4967H32.7842H32.9758H33.2633H33.455H33.7424H34.0299L34.3174 9.11479H34.6048H34.8923L35.1798 9.20614H35.4673H35.7547L36.1381 9.29753H36.4255L36.713 9.38889H37.0963L37.3838 9.48024H37.7671L38.0546 9.57159L38.342 9.66294H38.7253L39.0128 9.75429L39.3961 9.84569L39.6836 9.93704H40.0669L40.3544 10.0284L40.7377 10.1197ZM52.9075 14.505L40.3544 11.4901L40.7377 10.1197L53.195 13.1346L52.9075 14.505ZM56.7402 16.4235L56.4528 15.1445H56.5487V15.0531H56.6447L56.5487 15.1445H56.4528V15.3272L56.3572 15.5099L56.4528 15.6013V15.6926V15.784V15.6926H56.3572L56.2613 15.6013L56.1653 15.5099H56.0698L55.8779 15.4186L55.7824 15.3272H55.5904L55.399 15.2358L55.207 15.1445L55.0156 15.0531L54.8241 14.9618H54.5362L54.2488 14.8704L54.0573 14.7791L53.7698 14.6877L53.4824 14.5963H53.195L52.9075 14.505L53.195 13.1346L53.5784 13.226L53.8658 13.3173L54.1532 13.4087L54.4407 13.5L54.7281 13.5914H55.0156L55.207 13.6828L55.4945 13.7741L55.6864 13.8655L55.9738 13.9568L56.1653 14.0482L56.3572 14.1395H56.5487L56.6447 14.2309L56.8362 14.3223L57.0281 14.4136L57.1236 14.505L57.2196 14.5963L57.411 14.6877L57.507 14.7791L57.603 14.8704L57.6985 15.0531L57.7944 15.2358V15.5099V15.784L57.6985 15.9667L57.507 16.1494L57.3155 16.2408L57.2196 16.3321L57.0281 16.4235H56.8362H56.7402ZM26.1723 20.7174L56.4528 15.1445L56.7402 16.4235L26.4597 22.0877L26.1723 20.7174ZM17.2605 21.0828L17.6439 19.7124L17.9313 19.8038L18.2188 19.8951H18.6021L18.8896 19.9865L19.1771 20.0778L19.5604 20.1692H19.8478L20.2311 20.2606H20.5186L20.8061 20.3519L21.1894 20.4433H21.4768L21.7643 20.5346H22.0518H22.3393L22.7226 20.626H23.01H23.2975L23.4892 20.7174H23.7766H24.0641H24.3516H24.5433L24.7349 20.8087H25.0224H25.214H25.4057L25.5973 20.7174H25.789H25.8848H26.0765H26.1723L26.4597 22.0877H26.2681H26.0765H25.8848H25.6931L25.4057 22.1791H25.214H25.0224H24.7349L24.4474 22.0877H24.2558H23.9683H23.6808H23.3934L23.1059 21.9964H22.8184H22.5309L22.2435 21.905H21.8602L21.5727 21.8137H21.2852L20.9019 21.7223H20.6144L20.2311 21.6309H19.9436L19.5604 21.5396L19.2729 21.4482H18.8896L18.6021 21.3569L18.2188 21.2655L17.9313 21.1741L17.6439 21.0828H17.2605ZM5.09082 16.6976L17.6439 19.7124L17.2605 21.0828L4.70751 17.9766L5.09082 16.6976ZM1.25781 14.6877L1.54529 16.0581H1.44947H1.35364H1.44947V15.9667L1.54529 15.8754V15.6926V15.6013V15.5099V15.4186V15.5099H1.64111L1.73694 15.6013H1.83276L1.92859 15.6926L2.12024 15.784H2.21606L2.40771 15.8754L2.59936 15.9667L2.79101 16.0581H2.98266L3.17431 16.1494L3.46179 16.2408L3.65344 16.3321L3.94091 16.4235H4.22839L4.51585 16.5149L4.80334 16.6062L5.09082 16.6976L4.70751 17.9766H4.42002L4.13256 17.8852L3.84509 17.7939L3.55761 17.7025L3.27014 17.6112L2.98266 17.5198L2.79101 17.4284L2.50354 17.3371H2.31189L2.02442 17.2457L1.83276 17.1544L1.64111 17.063L1.44947 16.9717L1.25781 16.8803L1.16199 16.7889L0.970343 16.6976H0.874515L0.682868 16.6062L0.587044 16.5149L0.491216 16.3321L0.395392 16.2408L0.299567 16.0581L0.203742 15.8754L0.107918 15.6926L0.203742 15.4186L0.299567 15.1445L0.491216 15.0531L0.682868 14.8704H0.778691L0.970343 14.7791L1.16199 14.6877H1.25781Z" fill="#5CC6D0"/>
<path d="M40.9283 36.7052L53.0981 39.6286C56.4519 40.4508 57.9851 41.3644 56.5479 41.6385L26.267 47.2115C24.8297 47.4856 20.805 47.0289 17.4512 46.2065L4.8981 43.1918C1.54424 42.3694 -0.0847811 41.4558 1.44842 41.1817L17.3553 38.2582" stroke="white" stroke-opacity="0.5" stroke-width="0.4" stroke-linecap="round" stroke-linejoin="round"/>
<path d="M40.9283 23.6416L53.0981 26.5651C56.4519 27.3873 57.9851 28.3009 56.5479 28.575L26.267 34.1479C24.8297 34.422 20.805 33.9652 17.4512 33.143L4.8981 30.1281C1.54424 29.3059 -0.0847811 28.3923 1.44842 28.1182L17.3553 25.1947" stroke="white" stroke-opacity="0.5" stroke-width="0.3" stroke-linecap="round" stroke-linejoin="round"/>
<path fill-rule="evenodd" clip-rule="evenodd" d="M16.7817 27.3862C17.7399 27.2949 18.5066 27.4776 19.0815 27.843L22.0521 27.4776C22.0521 27.3862 22.0521 27.3862 22.0521 27.2949C22.0521 26.564 23.3936 25.8331 25.1185 25.8331C26.7475 25.7418 28.1848 26.3813 28.1848 27.2035C28.1848 27.2035 28.089 27.2949 28.089 27.3862L31.1554 28.4825C31.7304 28.2085 32.497 28.0257 33.2636 28.0257C34.2218 28.0257 35.0842 28.1171 35.6592 28.4825L38.1506 28.2085C38.1506 28.1171 38.1506 28.1171 38.1506 28.0257C38.1506 27.2949 39.4922 26.564 41.217 26.564C42.8462 26.4727 44.2834 27.1122 44.2834 27.9344C44.2834 28.6653 42.8462 29.3961 41.217 29.3961C40.4504 29.3961 39.6838 29.3048 39.2047 29.122L36.33 29.3961C36.2341 30.2184 34.8926 30.8579 33.2636 30.8579C31.6346 30.9492 30.1972 30.3097 30.1972 29.4875C30.1972 29.4875 30.293 29.3961 30.293 29.3048L27.2266 28.2085C26.7475 28.4825 25.9809 28.6653 25.1185 28.6653C24.3518 28.6653 23.6811 28.5739 23.1061 28.3912L19.8481 28.7566C19.7523 29.5788 18.4107 30.2184 16.7817 30.2184C15.0568 30.3097 13.7153 29.6702 13.7153 28.848C13.7153 28.1171 15.0568 27.3862 16.7817 27.3862Z" fill="#5CC6D0"/>
<path fill-rule="evenodd" clip-rule="evenodd" d="M16.4945 14.6874C17.4528 14.6874 18.2194 14.7788 18.7943 15.0528L30.0058 13.2257C30.0058 13.2257 30.0058 13.2257 30.0058 13.1343C30.0058 12.4034 31.3474 11.7639 33.168 11.7639C34.8929 11.7639 36.3303 12.4034 36.3303 13.1343C36.3303 13.9565 34.8929 14.5961 33.168 14.5961C32.3056 14.5961 31.539 14.4133 30.9641 14.1393L19.6568 16.0578H19.7526C19.7526 16.88 18.3152 17.4282 16.4945 17.4282C14.7697 17.4282 13.3323 16.88 13.3323 16.0578C13.3323 15.3269 14.7697 14.6874 16.4945 14.6874Z" fill="#5CC6D0"/>
<path fill-rule="evenodd" clip-rule="evenodd" d="M41.4085 13.9565C43.2292 13.9565 44.5709 14.5046 44.5709 15.3268C44.5709 16.1491 43.2292 16.6972 41.4085 16.6972C40.5461 16.6972 39.6837 16.6059 39.1088 16.3318L28.3764 18.0676C28.2805 18.7985 26.939 19.438 25.2142 19.438C23.3935 19.438 22.0519 18.7985 22.0519 17.9763C22.0519 17.2454 23.3935 16.6059 25.2142 16.6059C26.1724 16.6059 27.0348 16.7886 27.6098 17.0627L38.2463 15.3268C38.2463 14.5046 39.6837 13.9565 41.4085 13.9565Z" fill="#5CC6D0"/>
<path fill-rule="evenodd" clip-rule="evenodd" d="M37.0969 39.2631C38.8218 39.2631 40.2592 39.9026 40.2592 40.6335C40.2592 41.4557 38.8218 42.0953 37.0969 42.0953C36.2345 42.0953 35.3721 41.9125 34.7971 41.6385L24.0648 43.3744C23.9689 44.1053 22.5316 44.7447 20.9026 44.7447C19.0819 44.7447 17.7403 44.1053 17.7403 43.2829C17.7403 42.5521 19.0819 41.9125 20.9026 41.9125C21.8608 41.9125 22.7232 42.0953 23.2982 42.3693L33.9347 40.6335C33.9347 39.9026 35.3721 39.2631 37.0969 39.2631Z" fill="#5CC6D0"/>
</g>
<defs>
<clipPath id="clip0">
<rect width="58" height="55" fill="white"/>
</clipPath>
</defs>
</svg>
