<svg width="53" height="53" viewBox="0 0 53 53" fill="none" xmlns="http://www.w3.org/2000/svg">
<path fill-rule="evenodd" clip-rule="evenodd" d="M29.4641 33.5905C29.1367 33.3099 28.6457 33.3567 28.3768 33.6957L26.1787 36.3615L25.3485 35.6483C25.0212 35.3676 24.5301 35.4028 24.2495 35.7301C23.9689 36.0458 24.0039 36.5369 24.3313 36.8175L25.7695 38.0685C25.9097 38.1854 26.0851 38.2556 26.2722 38.2556C26.2956 38.2556 26.319 38.2556 26.3424 38.2556C26.5528 38.2322 26.7399 38.127 26.8685 37.9633L29.5694 34.6779C29.85 34.3505 29.7915 33.8594 29.4641 33.5905Z" fill="white"/>
<path fill-rule="evenodd" clip-rule="evenodd" d="M47.9373 44.9556C47.8089 44.9204 47.6685 44.8852 47.5398 44.8504C47.3646 44.7916 47.2242 44.5461 47.1307 44.3005C49.1298 42.9209 50.615 40.5476 50.615 38.4664V36.5841C50.615 34.2574 49.89 32.2931 48.5103 30.8784C47.271 29.6157 45.6106 28.9025 43.8219 28.8674C43.8099 28.8674 43.7983 28.8674 43.7983 28.8674C42.0095 28.9025 40.3375 29.6157 39.1099 30.8784C37.7302 32.2931 37.0053 34.2574 37.0053 36.5841V38.4664C37.0053 40.5476 38.4902 42.9209 40.4895 44.3005C40.3843 44.5461 40.244 44.7916 40.0686 44.8504C39.94 44.8852 39.7997 44.9204 39.6711 44.9556C39.0046 45.1427 38.2446 45.3415 37.5431 45.657L32.1297 40.0566C32.9949 38.9459 33.5094 37.5428 33.5094 36.0112C33.5094 32.6556 31.0073 29.8846 27.8037 29.5104V24.1321H35.1229C35.8244 24.1321 36.3856 23.5592 36.3856 22.8577V21.2325C36.3856 17.4678 33.4509 16.661 31.3113 16.0764C31.1827 16.0413 31.0541 16.0062 30.9254 15.9712C30.7501 15.9244 30.6097 15.6789 30.5045 15.4334C32.5039 14.0537 34.0005 11.6686 34.0005 9.59909V7.71668C34.0005 5.38998 33.2638 3.41404 31.8959 2.01101C30.6565 0.748286 28.9845 0.0350758 27.1957 0C27.1957 0 27.184 0 27.1723 0C25.3834 0.0350758 23.7231 0.748286 22.4838 2.01101C21.1041 3.41404 20.3792 5.38998 20.3792 7.71668V9.59909C20.3792 11.6686 21.8758 14.0537 23.8751 15.4334C23.7699 15.6789 23.6296 15.9244 23.4542 15.9712C23.3256 16.0062 23.197 16.0413 23.0567 16.0881C20.9171 16.661 17.994 17.4678 17.994 21.2325V22.8577C17.994 23.5592 18.5553 24.1321 19.2451 24.1321H26.2603V29.5338C23.1034 29.9431 20.6598 32.6906 20.6598 36.0112C20.6598 37.5428 21.1743 38.9459 22.0395 40.0682L16.7781 45.5518C15.7726 44.7448 14.4397 44.3825 13.3289 44.0786C13.2003 44.0434 13.0717 44.0086 12.9314 43.9734C12.756 43.9266 12.6157 43.6811 12.5105 43.4356C14.5215 42.0443 16.0064 39.6707 16.0064 37.6013V35.7072C16.0064 33.3922 15.2815 31.4162 13.9018 30.0015C12.6625 28.7388 11.0022 28.0256 9.2133 28.0022C9.20163 27.9905 9.18995 27.9905 9.18995 28.0022C7.40108 28.0256 5.72909 28.7388 4.50144 30.0015C3.12177 31.4162 2.39687 33.3922 2.39687 35.7072V37.6013C2.39687 39.6707 3.88176 42.0443 5.88109 43.4356C5.77588 43.6811 5.63556 43.9266 5.4602 43.9734C5.33155 44.0086 5.20294 44.0434 5.06266 44.0786C2.92301 44.6633 0 45.4699 0 49.2349V50.8601C0 51.5615 0.561216 52.1342 1.26274 52.1342H7.42443C7.84537 52.1342 8.19612 51.7835 8.19612 51.3508C8.19612 50.9301 7.84537 50.5794 7.42443 50.5794H1.55504V49.2349C1.55504 47.1534 2.65409 46.4404 4.53651 45.8558L7.96226 47.9137C8.40659 48.194 8.80409 48.3464 9.20163 48.3464C9.58745 48.3464 9.98499 48.194 10.4293 47.9137L13.8667 45.8558C15.7375 46.4404 16.8482 47.1534 16.8482 49.2349V50.5794H10.8034C10.3708 50.5794 10.0201 50.9301 10.0201 51.3508C10.0201 51.7835 10.3708 52.1342 10.8034 52.1342H17.1405C17.8304 52.1342 18.3916 51.5615 18.3916 50.8601V49.2349C18.3916 48.194 18.1694 47.3758 17.807 46.7327L23.1386 41.1673C24.2259 42.0323 25.5939 42.5586 27.0787 42.5586C28.5753 42.5586 29.9433 42.0323 31.0307 41.1673L36.1635 46.4756C35.2515 47.2238 34.6084 48.3343 34.6084 50.1115V51.7367C34.6084 52.4385 35.1696 52.9996 35.8711 52.9996H42.1731C42.6058 52.9996 42.9565 52.6605 42.9565 52.2278C42.9565 51.7951 42.6058 51.4564 42.1731 51.4564H36.1635V50.1115C36.1635 48.0304 37.2625 47.3174 39.1449 46.7212L42.5822 48.7786C43.0149 49.071 43.4124 49.2229 43.8099 49.2229C44.1958 49.2229 44.5933 49.071 45.0376 48.7786L48.4751 46.7212C50.3459 47.3054 51.4568 48.0304 51.4568 50.1115V51.4564H45.6926C45.2599 51.4564 44.9092 51.7951 44.9092 52.2278C44.9092 52.6605 45.2599 52.9996 45.6926 52.9996H51.7491C52.4389 52.9996 53 52.4385 53 51.7367V50.1115C53 46.3353 50.0771 45.5402 47.9373 44.9556ZM9.20163 29.5455C11.5283 29.5923 14.0071 31.2409 14.4046 34.7367C14.0538 34.5731 13.8434 34.3509 13.5979 34.1054C13.2354 33.7312 12.7677 33.2402 11.9376 33.2402C11.7388 33.2402 11.5167 33.2635 11.2711 33.3337C10.9554 33.4155 10.6865 33.4857 10.4527 33.5442C9.78624 33.7312 9.45884 33.8131 9.20163 33.8131C8.93269 33.8131 8.60534 33.7312 7.95058 33.5442C7.71676 33.4857 7.44782 33.4155 7.13214 33.3337C5.8577 32.9947 5.24973 33.6377 4.79373 34.1054C4.5599 34.3509 4.33776 34.5847 3.99868 34.7367C4.38451 31.2409 6.87493 29.5923 9.20163 29.5455ZM3.94021 37.6013V36.3853C4.99252 36.1398 5.53034 35.5786 5.91617 35.181C6.30199 34.7835 6.34878 34.7251 6.7346 34.8303C7.05028 34.9121 7.30754 34.9823 7.54136 35.0524C8.30133 35.2512 8.73394 35.3681 9.20163 35.3681C9.66931 35.3681 10.0902 35.2512 10.8619 35.0524C11.084 34.9823 11.353 34.9121 11.6687 34.8303C12.0545 34.7251 12.1013 34.7835 12.4754 35.181C12.8612 35.5786 13.3991 36.1398 14.4514 36.3853V37.6013C14.4514 39.5538 12.5689 41.9859 10.4293 42.7925C9.51731 43.1432 8.87427 43.1432 7.96226 42.7925C5.82263 41.9859 3.94021 39.5538 3.94021 37.6013ZM9.61085 46.5808C9.61085 46.5924 9.59917 46.5924 9.58745 46.604C9.2133 46.8495 9.17823 46.8495 8.80409 46.604C8.79241 46.5924 8.79241 46.5924 8.78073 46.5808L6.45399 45.1891C6.82814 44.9204 7.08535 44.5345 7.24907 44.1838C7.29582 44.2074 7.35429 44.2306 7.41275 44.2422C8.04412 44.4877 8.61701 44.6049 9.20163 44.6049C9.77452 44.6049 10.3475 44.4877 10.9788 44.2422C11.0373 44.2306 11.0958 44.2074 11.1542 44.1838C11.3179 44.5345 11.5634 44.9204 11.9493 45.1891L9.61085 46.5808ZM27.184 1.55503C29.5107 1.6018 32.0011 3.23866 32.3869 6.73456C32.0479 6.58256 31.8257 6.34874 31.5919 6.1032C31.2294 5.72905 30.7617 5.23797 29.9199 5.23797C29.7212 5.23797 29.499 5.26137 29.2652 5.33151C28.9495 5.41337 28.6806 5.48351 28.4584 5.55365C27.792 5.72905 27.4529 5.82259 27.184 5.82259C26.9268 5.82259 26.5877 5.72905 25.9212 5.55365C25.6991 5.48351 25.4302 5.41337 25.1145 5.33151C23.8517 4.99248 23.2321 5.63552 22.7878 6.1032C22.5422 6.34874 22.3318 6.58256 21.981 6.73456C22.3785 3.23866 24.8572 1.6018 27.184 1.55503ZM21.9343 9.59909V8.38311C22.9866 8.13757 23.5244 7.57639 23.9102 7.17885C24.2844 6.78131 24.3311 6.73456 24.717 6.8281C25.0326 6.90992 25.2899 6.9801 25.512 7.05024C26.2837 7.26071 26.7163 7.3776 27.184 7.3776C27.6634 7.3776 28.0843 7.26071 28.8677 7.05024C29.0898 6.9801 29.347 6.90992 29.651 6.8281C30.0368 6.73456 30.0836 6.78131 30.4695 7.17885C30.8553 7.57639 31.3931 8.13757 32.4454 8.38311V9.59909C32.4454 11.5282 30.5279 14.0069 28.4233 14.802C27.5113 15.1411 26.8683 15.1411 25.9563 14.802C23.8517 14.0069 21.9343 11.5282 21.9343 9.59909ZM29.9316 17.1988L27.6049 18.5902C27.5932 18.5902 27.5932 18.6019 27.5815 18.6019C27.2074 18.8474 27.1723 18.8474 26.7981 18.6019C26.7864 18.6019 26.7748 18.5902 26.7748 18.5902L24.448 17.1988C24.8222 16.9182 25.0677 16.5324 25.2314 16.1816C25.2899 16.205 25.3483 16.2284 25.4068 16.2518C26.0382 16.4856 26.6111 16.6143 27.184 16.6143C27.7686 16.6143 28.3415 16.4856 28.9729 16.2518C29.0313 16.2284 29.0898 16.205 29.1365 16.1816C29.3002 16.5324 29.5458 16.9182 29.9316 17.1988ZM19.5374 22.5771V21.2325C19.5374 19.1514 20.6481 18.4382 22.5189 17.8536L25.9563 19.9114C26.4006 20.2037 26.7981 20.344 27.184 20.344C27.5815 20.344 27.979 20.2037 28.4233 19.9114L31.8491 17.8536C33.7315 18.4382 34.8306 19.1514 34.8306 21.2325V22.5771H19.5374ZM27.0787 41.0036C24.4013 41.0036 22.2149 38.7705 22.2149 36.0112C22.2149 33.2635 24.4013 31.0304 27.0787 31.0304C29.7679 31.0304 31.9543 33.2635 31.9543 36.0112C31.9543 38.7705 29.7679 41.0036 27.0787 41.0036ZM43.8099 30.4224C46.1369 30.4692 48.6155 32.1178 49.013 35.6136C48.6623 35.45 48.4519 35.2278 48.2064 34.9823C47.7621 34.5146 47.1423 33.8716 45.8794 34.1989C45.5639 34.2924 45.2951 34.3626 45.0612 34.4211C44.3945 34.6081 44.0674 34.69 43.8099 34.69C43.5412 34.69 43.2136 34.6081 42.559 34.4211C42.3251 34.3626 42.0563 34.2924 41.7404 34.1989C40.4661 33.8716 39.8582 34.5146 39.4021 34.9823C39.1683 35.2278 38.9462 35.45 38.6071 35.6136C38.9929 32.1178 41.4833 30.4692 43.8099 30.4224ZM38.5486 38.4664V37.2505C39.6009 37.005 40.1504 36.4438 40.5246 36.0579C40.9104 35.6604 40.9572 35.602 41.343 35.7072C41.6588 35.789 41.916 35.8592 42.1499 35.9176C42.9097 36.1281 43.3424 36.245 43.8099 36.245C44.2778 36.245 44.6985 36.1281 45.4703 35.9176C45.6926 35.8592 45.9614 35.789 46.2773 35.7072C46.6628 35.602 46.7096 35.6604 47.0955 36.0579C47.4698 36.4438 48.0076 37.005 49.0598 37.2505V38.4664C49.0598 40.4307 47.189 42.8625 45.0496 43.6695C44.1258 44.0202 43.4828 44.0202 42.5706 43.6695C40.431 42.8625 38.5486 40.4307 38.5486 38.4664ZM44.231 47.4574C44.2194 47.4694 44.2074 47.4694 44.1958 47.481C43.8219 47.7265 43.7983 47.7265 43.4244 47.481C43.4124 47.4694 43.4008 47.4694 43.3892 47.4574L41.0624 46.0661C41.4481 45.7974 41.6936 45.3999 41.8576 45.0492C41.916 45.0724 41.9627 45.096 42.0211 45.1191C42.6526 45.3647 43.2372 45.4815 43.8099 45.4815C44.3829 45.4815 44.956 45.3647 45.599 45.1191C45.6458 45.096 45.7042 45.0724 45.7626 45.0608C45.9262 45.3999 46.1717 45.7974 46.5576 46.0661L44.231 47.4574Z" fill="#5CC6D0"/>
</svg>
