<svg width="47" height="47" viewBox="0 0 47 47" fill="none" xmlns="http://www.w3.org/2000/svg">
<path d="M31.6156 3.67188H31.5407C26.7019 3.67188 22.7656 7.60812 22.7656 12.4469C22.7656 14.5414 23.5154 16.569 24.8784 18.1574L27.1719 20.8342V22.7656C27.1719 25.1957 29.1481 27.1719 31.5781 27.1719C34.0082 27.1719 35.9844 25.1957 35.9844 22.7656V20.8342L38.2778 18.1574C39.6408 16.569 40.3906 14.5414 40.3906 12.4469C40.3906 7.60812 36.4544 3.67188 31.6156 3.67188ZM31.5781 25.7031C29.9581 25.7031 28.6406 24.3857 28.6406 22.7656V21.2969H34.5156V22.7656C34.5156 24.3857 33.1982 25.7031 31.5781 25.7031ZM30.3554 13.2188H32.8009L32.3595 19.8281H30.796L30.3554 13.2188ZM37.163 17.2027L34.9122 19.8281H33.8319L34.2725 13.2188H35.25C36.4647 13.2188 37.4531 12.2303 37.4531 11.0156C37.4531 9.80098 36.4647 8.8125 35.25 8.8125H35.1553C33.9994 8.8125 33.0329 9.71579 32.9573 10.8695L32.8985 11.75H30.2577L30.199 10.8702C30.1233 9.71579 29.1569 8.8125 28.001 8.8125H27.9062C26.6916 8.8125 25.7031 9.80098 25.7031 11.0156C25.7031 12.2303 26.6916 13.2188 27.9062 13.2188H28.8837L29.3243 19.8281H28.2441L25.9932 17.2027C24.8593 15.8794 24.2344 14.1903 24.2344 12.4469C24.2344 8.41813 27.5119 5.14062 31.5407 5.14062H31.6156C35.6444 5.14062 38.9219 8.41813 38.9219 12.4469C38.9219 14.1903 38.2969 15.8794 37.163 17.2027ZM34.371 11.75L34.4231 10.9664C34.4481 10.5823 34.7705 10.2812 35.1553 10.2812H35.25C35.6554 10.2812 35.9844 10.6103 35.9844 11.0156C35.9844 11.421 35.6554 11.75 35.25 11.75H34.371ZM28.7853 11.75H27.9062C27.5009 11.75 27.1719 11.421 27.1719 11.0156C27.1719 10.6103 27.5009 10.2812 27.9062 10.2812H28.001C28.3858 10.2812 28.7082 10.5823 28.7332 10.9672L28.7853 11.75Z" fill="#5CC6D0"/>
<path d="M44.0623 0.734379H19.0938C17.8791 0.734379 16.8906 1.72284 16.8906 2.9375V22.7656H2.9375C1.72284 22.7656 0.734375 23.7541 0.734375 24.9688V44.0623C0.734375 45.2771 1.72284 46.2658 2.9375 46.2658H23.5C24.7147 46.2658 25.7031 45.2771 25.7031 44.0623V30.1094H44.0623C45.2771 30.1094 46.2658 29.1209 46.2658 27.9062V2.9375C46.2658 1.72284 45.2771 0.734379 44.0623 0.734379ZM24.2344 44.0623C24.2344 44.4679 23.9054 44.7969 23.5 44.7969H2.9375C2.53212 44.7969 2.20312 44.4679 2.20312 44.0623V24.9688C2.20312 24.5634 2.53212 24.2344 2.9375 24.2344H23.5C23.9054 24.2344 24.2344 24.5634 24.2344 24.9688V44.0623ZM44.7969 27.9062C44.7969 28.3116 44.4679 28.6406 44.0623 28.6406H25.7031V24.9688C25.7031 23.7541 24.7147 22.7656 23.5 22.7656H18.3594V2.9375C18.3594 2.53213 18.6884 2.20312 19.0938 2.20312H44.0623C44.4679 2.20312 44.7969 2.53213 44.7969 2.9375V27.9062Z" fill="#5CC6D0"/>
<path d="M13.2188 25.7031C9.57405 25.7031 6.60941 28.6678 6.60941 32.3125V32.4542C6.60941 33.9494 7.12344 35.4152 8.0576 36.5836L9.54691 38.4453V39.6562C9.54691 41.6809 11.1941 43.3281 13.2188 43.3281C15.2434 43.3281 16.8906 41.6809 16.8906 39.6562V38.4453L18.3799 36.5844C19.3141 35.416 19.8281 33.9494 19.8281 32.4542V32.3125C19.8281 28.6678 16.8635 25.7031 13.2188 25.7031ZM13.2188 41.8594C12.0041 41.8594 11.0156 40.8709 11.0156 39.6562V38.9219H15.4219V39.6562C15.4219 40.8709 14.4334 41.8594 13.2188 41.8594ZM12.4844 32.3125C12.4844 31.9071 12.8134 31.5781 13.2188 31.5781C13.6241 31.5781 13.9531 31.9071 13.9531 32.3125C13.9531 32.7179 13.6241 33.0469 13.2188 33.0469C12.8134 33.0469 12.4844 32.7179 12.4844 32.3125ZM18.3594 32.4542C18.3594 33.6168 17.9591 34.758 17.2328 35.6657L15.803 37.4531H13.9531V34.3805C14.8057 34.0765 15.4219 33.2687 15.4219 32.3125C15.4219 31.0978 14.4334 30.1094 13.2188 30.1094C12.0041 30.1094 11.0156 31.0978 11.0156 32.3125C11.0156 33.2687 11.6318 34.0765 12.4844 34.3805V37.4531H10.6345L9.20541 35.6657C8.4784 34.758 8.07813 33.6168 8.07813 32.4542V32.3125C8.07813 29.4785 10.3848 27.1719 13.2188 27.1719C16.0527 27.1719 18.3594 29.4785 18.3594 32.3125V32.4542Z" fill="#5CC6D0"/>
<path d="M41.8594 36.7187C41.8594 37.9334 40.8709 38.9219 39.6563 38.9219H26.1335L31.0589 43.8472L32.0974 42.8089L29.6791 40.3906H39.6563C41.681 40.3906 43.3281 38.7434 43.3281 36.7187V31.5781H41.8594V36.7187Z" fill="#5CC6D0"/>
<path d="M27.1719 35.9844H28.6406V37.4531H27.1719V35.9844Z" fill="#5CC6D0"/>
<path d="M30.1094 35.9844H31.5781V37.4531H30.1094V35.9844Z" fill="#5CC6D0"/>
<path d="M40.3906 35.9844V31.5781H38.9219V35.9844H33.0469V37.4531H38.9219C39.7319 37.4531 40.3906 36.7944 40.3906 35.9844Z" fill="#5CC6D0"/>
<path d="M2.20312 14.6874C2.20312 13.4727 3.19159 12.4842 4.40623 12.4842H16.4603L11.5348 7.55882L10.4964 8.59722L12.9147 11.0155H4.40623C2.38158 11.0155 0.734375 12.6627 0.734375 14.6874V19.828H2.20312V14.6874Z" fill="#5CC6D0"/>
<path d="M13.9531 13.9531H15.4219V15.4219H13.9531V13.9531Z" fill="#5CC6D0"/>
<path d="M11.0156 13.9531H12.4844V15.4219H11.0156V13.9531Z" fill="#5CC6D0"/>
<path d="M3.67188 15.4219V19.8281H5.14061V15.4219H9.54688V13.9531H5.14061C4.3306 13.9531 3.67188 14.6119 3.67188 15.4219Z" fill="#5CC6D0"/>
<path d="M3.67188 41.8594H5.14061V43.3281H3.67188V41.8594Z" fill="#5CC6D0"/>
<path d="M3.67188 38.9219H5.14061V40.3906H3.67188V38.9219Z" fill="#5CC6D0"/>
<path d="M3.67188 35.9844H5.14061V37.4531H3.67188V35.9844Z" fill="#5CC6D0"/>
<path d="M21.2969 28.6406H22.7656V30.1094H21.2969V28.6406Z" fill="#5CC6D0"/>
<path d="M21.2969 25.7031H22.7656V27.1719H21.2969V25.7031Z" fill="#5CC6D0"/>
<path d="M21.2969 31.5781H22.7656V33.0469H21.2969V31.5781Z" fill="#5CC6D0"/>
<path d="M41.8594 25.7031H43.3281V27.1719H41.8594V25.7031Z" fill="#5CC6D0"/>
<path d="M41.8594 22.7656H43.3281V24.2344H41.8594V22.7656Z" fill="#5CC6D0"/>
<path d="M41.8594 19.8281H43.3281V21.2969H41.8594V19.8281Z" fill="#5CC6D0"/>
<path d="M19.8281 9.5469H21.2969V11.0156H19.8281V9.5469Z" fill="#5CC6D0"/>
<path d="M19.8281 6.6094H21.2969V8.07813H19.8281V6.6094Z" fill="#5CC6D0"/>
<path d="M19.8281 3.67188H21.2969V5.14062H19.8281V3.67188Z" fill="#5CC6D0"/>
</svg>
