<svg width="47" height="55" viewBox="0 0 47 55" fill="none" xmlns="http://www.w3.org/2000/svg">
<path fill-rule="evenodd" clip-rule="evenodd" d="M46.1454 9.50428C38.5445 7.39475 30.9435 4.16304 24.0622 0.168317C23.7024 -0.0561056 23.2526 -0.0561056 22.8928 0.168317C15.8766 4.29769 8.6354 7.34982 0.854545 9.50428C0.359809 9.63897 0 10.0878 0 10.5815V22.431C0 34.5947 5.622 42.6291 10.3445 47.2522C15.4268 52.2344 21.3636 54.9723 23.4775 54.9723C25.6364 54.9723 31.5732 52.2344 36.6555 47.2522C41.378 42.6291 47 34.5947 47 22.431V10.5815C47 10.0878 46.6402 9.63897 46.1454 9.50428ZM44.6612 22.431C44.6612 33.7868 39.3991 41.2826 35.0364 45.5914C30.044 50.4838 24.6919 52.6383 23.4775 52.6383C22.3081 52.6383 16.956 50.4838 11.9636 45.5914C7.556 41.2826 2.33876 33.7868 2.33876 22.431V11.4792C9.75983 9.36964 16.7311 6.40728 23.4775 2.50231C30.089 6.31752 37.3751 9.41452 44.6612 11.4792V22.431Z" fill="#5CC6D0"/>
<path fill-rule="evenodd" clip-rule="evenodd" d="M13.2217 11.3456C12.9968 10.7621 12.3222 10.4479 11.7375 10.7173C9.62364 11.5252 7.50977 12.2433 5.39585 12.9166C4.90113 13.0961 4.5863 13.5001 4.5863 14.0387V18.4823C4.5863 19.1106 5.12602 19.6493 5.75568 19.6493C6.38534 19.6493 6.92504 19.1106 6.92504 18.4823V14.8915C8.81407 14.2631 10.703 13.5899 12.5471 12.8268C13.1767 12.6024 13.4466 11.9291 13.2217 11.3456Z" fill="#5CC6D0"/>
<path fill-rule="evenodd" clip-rule="evenodd" d="M15.4269 11.5699C15.5619 11.5699 15.7417 11.525 15.8767 11.4801H15.9216C16.5063 11.2108 16.7762 10.5375 16.5063 9.95404C16.2365 9.37054 15.5619 9.10126 14.9771 9.32566L14.9321 9.37054C14.3475 9.59494 14.1226 10.2683 14.3475 10.8966C14.5274 11.3006 14.9771 11.5699 15.4269 11.5699Z" fill="#5CC6D0"/>
<path fill-rule="evenodd" clip-rule="evenodd" d="M37.2846 37.2899C36.7449 36.9309 36.0253 37.0655 35.7104 37.6042C34.7209 39.0853 33.6415 40.4767 32.3822 41.7784C31.3477 42.8556 30.2233 43.8431 29.0539 44.7408C28.5142 45.0998 28.4243 45.818 28.8291 46.3566C29.0539 46.6259 29.4138 46.8055 29.7286 46.8055C29.9985 46.8055 30.2233 46.7157 30.4482 46.581C31.7076 45.5936 32.9219 44.5163 34.0463 43.3942C35.3956 41.958 36.6099 40.4767 37.6444 38.9058C38.0042 38.3672 37.8243 37.649 37.2846 37.2899Z" fill="#5CC6D0"/>
<path fill-rule="evenodd" clip-rule="evenodd" d="M26.3556 46.5366L26.2657 46.5816C25.726 46.8957 25.5461 47.6139 25.8609 48.1525C26.0858 48.5116 26.4456 48.736 26.8504 48.736C27.0752 48.736 27.2552 48.6911 27.4351 48.5565L27.525 48.5116C28.0647 48.1974 28.2446 47.5241 27.9298 46.9406C27.615 46.402 26.8954 46.2225 26.3556 46.5366Z" fill="#5CC6D0"/>
<path fill-rule="evenodd" clip-rule="evenodd" d="M15.6068 25.1258C14.8872 24.4076 13.9427 24.0037 12.9082 24.0037C11.9187 24.0037 10.9743 24.4076 10.2547 25.1258C8.81542 26.607 8.81542 28.9858 10.2547 30.4222L17.091 37.2895C17.8106 37.9627 18.7551 38.3667 19.7896 38.3667C20.779 38.3667 21.7236 37.9627 22.4432 37.2895L36.7006 23.0162C38.1848 21.535 38.1848 19.1561 36.7006 17.6749C36.0259 17.0017 35.0814 16.5977 34.047 16.5977C33.0575 16.5977 32.113 17.0017 31.3934 17.6749L19.7896 29.3001L15.6068 25.1258ZM33.0125 19.3356C33.3274 19.0664 33.6872 18.8869 34.047 18.8869C34.4518 18.8869 34.8116 19.0664 35.0814 19.3356C35.6662 19.8743 35.6662 20.8169 35.0814 21.3555L20.779 35.6287C20.5092 35.8981 20.1494 36.0776 19.7896 36.0776C19.3848 36.0776 19.025 35.8981 18.7551 35.6287L11.9187 28.8063C11.3341 28.2228 11.3341 27.3251 11.9187 26.7416C12.1886 26.4723 12.5484 26.3376 12.9082 26.3376C13.313 26.3376 13.6728 26.4723 13.9427 26.7416L18.935 31.7238C19.1599 31.9482 19.4747 32.0829 19.7896 32.0829C20.0594 32.0829 20.3743 31.9482 20.5991 31.7238L33.0125 19.3356Z" fill="#5CC6D0"/>
</svg>
