<svg width="46" height="46" viewBox="0 0 46 46" fill="none" xmlns="http://www.w3.org/2000/svg">
<g clip-path="url(#clip0)">
<path fill-rule="evenodd" clip-rule="evenodd" d="M42.8598 23.0002C43.8599 21.1433 44.5742 19.1435 45.1456 17.2866C46.8597 11.2874 46.0027 6.28804 42.8598 3.1456C39.717 0.00315055 34.717 -0.853883 28.717 0.860183C26.8598 1.43153 24.8599 2.14573 23.0027 3.1456C20.5741 1.86005 18.1456 1.00302 15.8599 0.574504C10.4313 -0.711044 6.00271 0.288828 3.14558 3.1456C1.28843 5.00248 0.145578 7.57361 0.00272144 10.5732C-0.140136 13.2871 0.431293 16.4296 1.57415 19.7149C0.574151 20.4291 0.00272144 21.7146 0.00272144 23.0002C0.00272144 24.4286 0.574151 25.5712 1.57415 26.4283C0.431293 29.5708 -0.140136 32.7132 0.00272144 35.4271C0.145578 38.4267 1.28843 41.1407 3.14558 42.8547C5.14559 44.9973 8.00274 45.9972 11.4313 45.9972C12.1456 45.9972 12.8599 45.9972 13.717 45.8543C16.5742 45.5687 19.8599 44.5688 23.0027 42.8547C24.8599 43.8546 26.8598 44.5688 28.717 45.1401C30.8599 45.7115 32.717 45.9972 34.5741 45.9972C38.0027 45.9972 40.8599 44.9973 42.8598 42.8547C45.717 39.9979 46.7171 35.57 45.4313 30.1421C45.0027 27.8567 44.1456 25.4284 42.8598 23.0002ZM29.1456 2.14573C34.5741 0.574504 39.1456 1.2887 42.0027 4.00263C44.717 6.85941 45.4313 11.4302 43.8599 16.8581C43.4313 18.4293 42.8598 20.0006 42.1456 21.5718C40.8599 19.1435 39.1456 16.8581 37.2884 14.7155C37.8599 14.0013 38.2885 13.0015 38.2885 12.0016C38.2885 11.0017 38.0027 10.1447 37.4313 9.43049L36.2884 10.2875C36.717 10.7161 36.8599 11.4302 36.8599 12.0016C36.8599 13.5728 35.5741 15.0012 34.0027 15.0012C32.4313 15.0012 31.0027 13.5728 31.0027 12.0016C31.0027 10.4304 32.4313 9.14483 34.0027 9.14483C34.5741 9.14483 35.0027 9.28766 35.4313 9.57332L36.1456 8.2878C35.5741 8.0021 34.717 7.71644 34.0027 7.71644C33.0027 7.71644 32.1456 8.14497 31.2884 8.71629C29.1456 6.85941 26.8598 5.14536 24.4313 3.85979C26.0027 3.1456 27.5741 2.57424 29.1456 2.14573ZM4.00272 4.00263C7.71699 0.431666 14.4313 0.574504 21.5742 3.85979C18.0027 5.85955 14.5742 8.43063 11.5741 11.5731C9.28844 13.8585 7.14558 16.2867 5.4313 18.8579C5.14559 18.8579 4.71701 18.715 4.28843 18.715C3.71701 18.715 3.28844 18.8579 2.85986 19.0007C0.431293 12.5729 0.859866 7.14507 4.00272 4.00263ZM11.5741 44.7117C8.43128 44.7117 5.85988 43.7118 4.00272 41.9977C0.859866 38.8553 0.431293 33.4274 2.85986 26.9996C3.28844 27.1425 3.71701 27.2853 4.28843 27.2853C4.71701 27.2853 5.14559 27.2853 5.4313 27.1425C7.14558 29.7136 9.28844 32.1418 11.5741 34.4273C14.5742 37.5697 18.0027 40.1408 21.5742 42.1405C18.0027 43.8546 14.5742 44.7117 11.5741 44.7117ZM23.0027 41.4263C19.2884 39.4266 15.717 36.8555 12.4313 33.5702C10.2884 31.2848 8.28845 28.9994 6.717 26.5711C7.85987 25.7141 8.57415 24.4286 8.57415 23.0002C8.57415 22.8573 8.57415 22.7145 8.57415 22.5717L7.14558 22.7145C7.14558 22.8573 7.14558 22.8573 7.14558 23.0002C7.14558 24.5714 5.85988 25.9998 4.28843 25.9998C2.71701 25.9998 1.28843 24.5714 1.28843 23.0002C1.28843 21.4289 2.71701 20.1434 4.28843 20.1434C5.4313 20.1434 6.43129 20.7147 6.85987 21.7146L8.14557 21.1433C7.71699 20.4291 7.28845 19.8577 6.717 19.4292C8.28845 17.0009 10.2884 14.7155 12.4313 12.4301C15.717 9.14483 19.2884 6.5737 23.0027 4.57399C25.4313 5.85955 28.0027 7.57361 30.4313 9.7162C30.0027 10.2875 29.717 11.1445 29.717 12.0016C29.717 14.4299 31.5742 16.2867 34.0027 16.2867C34.8598 16.2867 35.717 16.0011 36.2884 15.5725C38.4313 18.0008 40.1456 20.5719 41.4313 23.0002C39.4313 26.714 36.8599 30.285 33.5741 33.5702C33.1456 33.8559 32.8599 34.2844 32.4313 34.5701C31.717 33.9987 30.717 33.5702 29.717 33.5702C28.717 33.5702 27.8599 33.8559 27.0027 34.4273L27.8599 35.57C28.4313 35.1415 29.0027 34.9986 29.717 34.9986C31.2885 34.9986 32.5741 36.2841 32.5741 37.8554C32.5741 39.4266 31.2885 40.7121 29.717 40.7121C28.0027 40.7121 26.717 39.4266 26.717 37.8554C26.717 37.284 26.8598 36.8555 27.1456 36.427L26.0027 35.7128C25.5741 36.2841 25.4313 37.1412 25.4313 37.8554C25.4313 38.5696 25.5741 39.1409 25.8598 39.7123C24.8599 40.2837 24.0027 40.855 23.0027 41.4263ZM42.0027 41.9977C39.1456 44.7117 34.5741 45.4258 29.1456 43.8546C27.5741 43.4261 26.0027 42.8547 24.4313 42.1405C25.1456 41.712 25.8598 41.2835 26.5741 40.855C27.4313 41.5692 28.4313 42.1405 29.717 42.1405C32.0027 42.1405 34.0027 40.2837 34.0027 37.8554C34.0027 36.9983 33.717 36.2841 33.2884 35.57C33.717 35.2843 34.1456 34.8558 34.4313 34.4273C37.5742 31.4276 40.1456 27.9995 42.1456 24.4286C45.4313 31.5705 45.5742 38.2839 42.0027 41.9977Z" fill="#5CC6D0"/>
<path fill-rule="evenodd" clip-rule="evenodd" d="M34.1427 29.9969H32.7141V26.5687C32.7141 25.1404 31.7141 23.712 30.2856 23.2835L29.7141 23.1406L29.2855 24.4262L29.857 24.569C30.7141 24.8547 31.2856 25.7117 31.2856 26.5687V29.9969H28.857V28.14H27.5713V29.9969H21.4284V31.2824H34.1427V29.9969Z" fill="#5CC6D0"/>
<path fill-rule="evenodd" clip-rule="evenodd" d="M25.2864 23.2845L28.0007 24.1415L28.4293 22.8559L25.715 21.9989V20.2849C26.8578 19.4278 27.715 17.9994 27.715 16.2854V14.4285C27.715 11.7145 25.5721 9.57196 23.0007 9.57196C20.4293 9.57196 18.2864 11.7145 18.2864 14.4285V16.2854C18.2864 17.9994 19.1436 19.4278 20.2864 20.2849V21.9989L15.715 23.2845C14.2864 23.713 13.2864 25.1413 13.2864 26.5697V29.9979H11.8579V31.2834H20.1436V29.9979H18.4293V28.141H17.1436V29.9979H14.715V26.5697C14.715 25.7127 15.2864 24.8557 16.1436 24.57L20.715 23.2845C21.2864 23.9987 22.1436 24.2843 23.0007 24.2843C23.8579 24.2843 24.715 23.9987 25.2864 23.2845ZM23.0007 11.0004C24.8578 11.0004 26.4293 12.5716 26.4293 14.4285V15.1427L25.0007 13.2858H19.8579C20.2864 12.0002 21.5722 11.0004 23.0007 11.0004ZM19.5721 16.2854V14.5713H24.2864L26.2864 17.1424C25.8578 18.7136 24.5721 19.7135 23.0007 19.7135C21.1436 19.7135 19.5721 18.1423 19.5721 16.2854ZM21.715 22.2846V20.8562C22.1436 20.9991 22.5722 20.9991 23.0007 20.9991C23.4293 20.9991 23.8579 20.9991 24.2864 20.8562V22.2846C24.0007 22.7131 23.5721 22.9988 23.0007 22.9988C22.4293 22.9988 22.0007 22.7131 21.715 22.2846Z" fill="#5CC6D0"/>
<path fill-rule="evenodd" clip-rule="evenodd" d="M26.5704 26.5698L24.7133 25.9984L24.999 24.7128L26.999 25.1414L26.5704 26.5698Z" fill="#5CC6D0"/>
<path fill-rule="evenodd" clip-rule="evenodd" d="M29.5722 25.9989L29.1436 27.2845L27.8578 26.856L28.2864 25.5704L29.5722 25.9989Z" fill="#5CC6D0"/>
<path fill-rule="evenodd" clip-rule="evenodd" d="M33.2865 11.2866H34.715V12.715H33.2865V11.2866Z" fill="#5CC6D0"/>
<path fill-rule="evenodd" clip-rule="evenodd" d="M28.9999 37.1401H30.2856V38.5684H28.9999V37.1401Z" fill="#5CC6D0"/>
<path fill-rule="evenodd" clip-rule="evenodd" d="M3.57129 22.2858H4.99988V23.7142H3.57129V22.2858Z" fill="#5CC6D0"/>
</g>
<defs>
<clipPath id="clip0">
<rect width="46" height="46" fill="white"/>
</clipPath>
</defs>
</svg>
